<?xml version="1.0" encoding="UTF-8"?>
<svg version="1.1" xmlns="http://www.w3.org/2000/svg" width="293" height="524">
<path d="M0 0 C27.69605821 24.59090851 44.51207666 60.67752698 46.97509766 97.5234375 C49.06494246 138.736345 35.94294994 176.76230085 8.55566406 207.60083008 C2.84978934 213.88756982 -3.22725953 219.41257975 -10.02490234 224.5234375 C-11.18699219 225.40902344 -11.18699219 225.40902344 -12.37255859 226.3125 C-44.33090486 249.68104034 -83.77192474 258.47705641 -122.76513672 252.8828125 C-159.67654009 247.01271897 -194.34342638 226.47217984 -216.7902832 196.47485352 C-233.09566438 173.66984333 -245.04939597 146.20014744 -245.22802734 117.78125 C-245.23372742 117.05461151 -245.23942749 116.32797302 -245.24530029 115.57931519 C-245.25469754 114.0447533 -245.26126313 112.51017171 -245.26513672 110.97558594 C-245.27473185 108.68906691 -245.30575799 106.40349206 -245.33740234 104.1171875 C-245.60520422 66.80966724 -229.90635313 32.01118874 -204.02490234 5.5234375 C-203.23728516 4.67394531 -202.44966797 3.82445312 -201.63818359 2.94921875 C-147.64041667 -53.90462841 -56.52608426 -49.01519054 0 0 Z M-144.33349609 64.46875 C-158.05106237 79.45928284 -161.89907299 96.1357136 -161.19970703 115.93261719 C-160.12475274 131.86476092 -150.81466332 146.18206855 -139.02490234 156.5234375 C-125.61052232 166.96142466 -108.6695574 172.17386883 -91.76318359 170.12890625 C-76.95246907 167.73009669 -64.42488014 161.46134518 -54.02490234 150.5234375 C-53.45513672 149.94980469 -52.88537109 149.37617188 -52.29833984 148.78515625 C-41.4502022 137.13036222 -36.6006356 120.87292515 -36.74365234 105.23046875 C-37.86276007 90.48000716 -43.38324611 77.68426226 -53.02490234 66.5234375 C-53.59724609 65.84410156 -54.16958984 65.16476563 -54.75927734 64.46484375 C-64.80019608 53.45845206 -80.27626267 46.68019355 -95.02490234 45.5234375 C-113.76084061 45.13106183 -131.05587151 50.96140873 -144.33349609 64.46875 Z " fill="#FEC707" transform="translate(246.02490234375,100.4765625)"/>
<path d="M0 0 C27.72 0 55.44 0 84 0 C84.99 7.92 84.99 7.92 86 16 C88.81789479 24.85624076 92.26442382 31.73407951 98 39 C98.47179687 39.63550781 98.94359375 40.27101563 99.4296875 40.92578125 C107.65512751 51.40508476 121.89293913 59.06372964 135 61 C153.82511776 62.50251151 169.44319773 59.69233805 184.72265625 47.8984375 C199.93969937 34.90771894 204.80667844 19.15992933 208 0 C235.72 0 263.44 0 292 0 C292 36.84143939 279.15454426 71.90051676 254 99 C253.46890625 99.57492187 252.9378125 100.14984375 252.390625 100.7421875 C233.80753162 120.62783416 210.4568606 135.09470174 184 142 C182.87899902 142.3088916 182.87899902 142.3088916 181.73535156 142.62402344 C160.25801025 148.3434837 133.53529611 148.77776237 112 143 C111.236875 142.80664062 110.47375 142.61328125 109.6875 142.4140625 C72.47207627 132.87466591 40.31913038 109.56879518 20.3125 76.625 C5.9997805 52.32325986 0 28.32352514 0 0 Z " fill="#FEC707" transform="translate(1,377)"/>
<path d="M0 0 C9.38784052 7.04406486 17.12369751 15.89381381 19.68359375 27.609375 C21.51697983 41.46162534 19.08934478 52.65961831 11 64 C5.24505199 71.28383144 -3.54280235 76.9507327 -12.7265625 78.75 C-24.51875934 80.04673642 -36.4401907 79.31381513 -46.375 72.1875 C-47.60301738 71.14781302 -48.81215345 70.08535537 -50 69 C-50.60328125 68.49855469 -51.2065625 67.99710937 -51.828125 67.48046875 C-59.03293261 61.04312977 -63.65613983 51.68778541 -64.23828125 42.05859375 C-64.57905538 27.89804694 -62.07185548 16.79920949 -52.22265625 6.0625 C-38.56818329 -6.89389152 -16.27151587 -9.45713607 0 0 Z " fill="#FEC707" transform="translate(273,5)"/>
</svg>
